# xmcd CD database file
#
# Track frame offsets:
#	182
#	20975
#	33755
#	46285
#	60095
#	76415
#	96105
#	114322
#	129890
#	150362
#	162845
#
# Disc length: 2430 seconds
#
# Revision: 2
# Processed by: cddbd v1.4PL0 Copyright (c) Steve Scherf et al.
# Submitted via: CDex 1.50
#
DISCID=73097c0b
DTITLE=John Brack and Jeff Turner - A Time For Feelings
DYEAR=1988
DGENRE=Country
TTITLE0=Flames Of Love
TTITLE1=Jingle Bells
TTITLE2=It's A Country Kinda Christmas After All
TTITLE3=On Christmas Day
TTITLE4=Silent Night, Holy Night
TTITLE5=Now You Know It's Christmas
TTITLE6=If They Could Know Christmas
TTITLE7=Winter Wonderland
TTITLE8=White Christmas
TTITLE9=Saw The Light
TTITLE10=All I Want For Christmas
EXTD=YEAR: 1988
EXTT0=
EXTT1=
EXTT2=
EXTT3=
EXTT4=
EXTT5=
EXTT6=
EXTT7=
EXTT8=
EXTT9=
EXTT10=
PLAYORDER=
